# Blender 4.2.2 LTS
# www.blender.org
mtllib nave.mtl
o Cube
v 1.154673 0.828889 -1.560081
v 1.061869 -0.711178 -1.779720
v -0.873212 0.582347 -1.664295
v -0.998198 -1.026068 -1.960098
v -2.906171 0.471707 -1.980413
v -4.013992 1.443320 -1.285767
v 1.001802 -1.026068 -4.888086
v -0.998198 -1.026068 -4.888086
v 0.629883 0.724814 -5.838319
v -0.762667 0.703297 -5.855218
v -2.025108 0.009919 -1.971449
v -3.477143 1.445396 -1.285764
v -4.683808 0.973932 -1.960098
v -2.841003 0.973932 -1.960098
v -4.302287 1.242929 -1.578576
v -3.227687 1.244151 -1.578574
v -0.759492 -0.767843 -3.836392
v -0.998198 -1.026068 -3.424092
v 1.001802 -1.255150 -3.424092
v 0.631478 -0.948793 -3.853266
v -0.998198 -1.026068 -2.326097
v 1.001802 -1.255150 -2.326097
v -0.998198 -1.026068 -2.143097
v 1.001802 -1.255150 -2.143097
v -1.079858 -0.237433 -2.074597
v 0.920142 -0.059022 -2.074597
v 1.511590 -0.380455 -1.103413
v 1.484690 0.533261 -1.093077
v 1.126788 1.048054 -1.664295
v 1.001802 -1.026068 -1.960098
v 1.665661 -0.537867 -0.961762
v -0.994468 1.005565 -6.096179
v 1.005532 1.005565 -6.096179
v -0.991500 -0.828814 -3.614823
v 1.008500 -1.057896 -3.614823
v 1.001802 -1.255150 -2.885592
v 1.001802 -1.255150 -2.442628
v 0.941019 -0.295028 -2.438510
v 0.967950 -0.599484 -2.907969
v 1.364145 -0.878821 -2.710354
v -1.747335 0.991313 -1.437179
v -1.005979 -1.025093 -0.960098
v 1.101031 0.611043 -0.960098
v -0.900447 0.747913 -0.960098
v 1.001802 -1.026068 -0.960098
v -2.906171 0.471707 -0.960098
v -4.683808 0.973932 -0.960098
v -2.029098 0.010418 -0.960098
v -4.302286 1.243496 -0.960098
v -3.236000 1.241761 -0.960098
v -4.013991 1.444224 -0.960098
v -3.481521 1.443526 -0.960098
v -3.761784 1.768760 -0.960098
v -3.728253 1.768889 -0.960098
v 0.237222 1.012823 -0.960098
v 1.666768 -0.537054 -0.960098
v 1.624422 0.602275 -0.960098
v 1.661332 -0.390802 -0.960098
v 1.620881 0.590420 -0.960098
v -2.854443 0.970999 -0.960098
v -0.917479 0.754912 -0.960098
v -2.830171 0.971416 -0.960098
v 1.154673 0.828889 -0.360115
v 1.061869 -0.711178 -0.140476
v -0.873212 0.582347 -0.255901
v -0.998198 -1.026068 0.039902
v -2.906171 0.471707 0.060217
v -4.013992 1.443320 -0.634429
v 1.001802 -1.026068 2.967890
v -0.998198 -1.026068 2.967890
v 0.629883 0.724814 3.918123
v -0.762667 0.703297 3.935022
v -2.025108 0.009919 0.051253
v -3.477143 1.445396 -0.634432
v -4.683808 0.973932 0.039902
v -2.841003 0.973932 0.039902
v -4.302287 1.242929 -0.341620
v -3.227687 1.244151 -0.341622
v -0.759492 -0.767843 1.916196
v -0.998198 -1.026068 1.503896
v 1.001802 -1.255150 1.503896
v 0.631478 -0.948793 1.933070
v -0.998198 -1.026068 0.405900
v 1.001802 -1.255150 0.405900
v -0.998198 -1.026068 0.222901
v 1.001802 -1.255150 0.222901
v -1.079858 -0.237433 0.154401
v 0.920142 -0.059022 0.154401
v 1.511590 -0.380455 -0.816783
v 1.484690 0.533261 -0.827119
v 1.126788 1.048054 -0.255901
v 1.001802 -1.026068 0.039902
v 1.665661 -0.537867 -0.958434
v -0.994468 1.005565 4.175983
v 1.005532 1.005565 4.175983
v -0.991500 -0.828814 1.694627
v 1.008500 -1.057896 1.694627
v 1.001802 -1.255150 0.965396
v 1.001802 -1.255150 0.522432
v 0.941019 -0.295028 0.518314
v 0.967950 -0.599484 0.987773
v 1.364145 -0.878821 0.790158
v -1.747335 0.991313 -0.483017
vn -0.0000 0.0404 -0.9992
vn -0.9994 0.0339 -0.0000
vn -0.2719 -0.9623 -0.0000
vn 0.7967 0.6042 0.0142
vn -0.0000 -0.5111 -0.8595
vn -0.1138 -0.9935 -0.0000
vn -0.0196 0.8080 0.5888
vn 1.0000 -0.0050 -0.0054
vn 0.8253 0.0307 -0.5639
vn 0.1782 0.1622 -0.9705
vn -0.5770 0.8167 -0.0007
vn -0.0009 0.8177 -0.5756
vn -0.5714 0.8207 -0.0023
vn -0.0009 0.8257 -0.5641
vn -0.0027 0.7084 -0.7058
vn 0.0959 0.8376 -0.5377
vn 0.3651 0.7850 0.5005
vn -0.9947 -0.1030 -0.0000
vn -0.0713 -0.6226 0.7793
vn -0.0406 0.4554 -0.8894
vn 0.8745 0.0164 -0.4848
vn 0.9980 0.0632 -0.0000
vn 0.8253 0.0307 -0.5638
vn 0.9568 -0.0163 -0.2902
vn 0.7669 0.2026 -0.6090
vn -0.0191 0.6143 0.7889
vn 0.3300 0.7631 0.5556
vn -0.1344 0.7618 0.6337
vn 0.1097 0.9580 0.2648
vn 0.5718 0.0327 0.8198
vn 0.7204 -0.6936 -0.0000
vn 0.9987 0.0516 -0.0000
vn 0.6524 0.6524 -0.3857
vn 0.4419 -0.0078 -0.8970
vn 0.1078 0.9526 0.2845
vn 0.2415 0.8116 -0.5320
vn -0.0172 0.9998 0.0027
vn 0.6922 0.0285 -0.7212
vn 0.7271 -0.2172 -0.6513
vn -0.7896 0.6136 -0.0017
vn 0.5795 0.8149 0.0102
vn 0.6360 0.7716 0.0115
vn -0.4642 -0.8857 -0.0000
vn 0.5924 -0.8056 -0.0000
vn -0.2206 0.9475 -0.2313
vn 0.3725 0.9065 -0.1987
vn 0.0142 0.8494 0.5276
vn -0.0005 -1.0000 0.0010
vn -0.7102 -0.7040 -0.0048
vn 0.0293 0.0366 0.9989
vn 0.7967 0.6042 -0.0142
vn -0.0000 -0.5111 0.8595
vn -0.0829 -0.9901 0.1133
vn 0.1067 0.7602 -0.6409
vn 0.9992 -0.0400 0.0063
vn 0.8253 0.0307 0.5639
vn 0.1769 0.1647 0.9704
vn -0.5770 0.8167 0.0007
vn -0.0009 0.8177 0.5756
vn -0.5714 0.8207 0.0023
vn -0.0032 0.8229 0.5682
vn -0.0027 0.7084 0.7058
vn 0.0959 0.8376 0.5377
vn 0.3651 0.7850 -0.5005
vn -0.8757 -0.0207 -0.4823
vn -0.0000 -1.0000 -0.0000
vn -0.0838 0.3600 0.9292
vn 0.8745 0.0164 0.4848
vn -0.9951 -0.0967 0.0200
vn 0.8253 0.0307 0.5638
vn 0.9568 -0.0163 0.2902
vn 0.7669 0.2026 0.6090
vn -0.0191 0.6143 -0.7889
vn 0.3300 0.7631 -0.5556
vn -0.1833 0.7515 -0.6337
vn 0.1238 0.9160 -0.3817
vn 0.5718 0.0327 -0.8198
vn 0.6524 0.6524 0.3857
vn 0.4419 -0.0078 0.8970
vn 0.1078 0.9526 -0.2845
vn 0.2415 0.8116 0.5320
vn -0.0172 0.9998 -0.0027
vn 0.6922 0.0285 0.7212
vn 0.7271 -0.2172 0.6513
vn -0.7896 0.6136 0.0017
vn 0.5787 0.8155 -0.0109
vn 0.6348 0.7725 -0.0130
vn -0.4655 -0.8851 0.0014
vn -0.2206 0.9475 0.2313
vn 0.3725 0.9065 0.1987
vn 0.0142 0.8494 -0.5276
vn -0.7102 -0.7040 0.0048
vn 0.0293 0.0366 -0.9989
vn -1.0000 0.0045 0.0046
vn -0.0000 1.0000 -0.0000
vn -0.0000 -0.9880 -0.1546
vn -1.0000 -0.0000 -0.0000
vn 0.1067 0.7602 0.6409
vn 0.9992 -0.0400 -0.0063
vn 0.1769 0.1647 -0.9704
vn -0.5762 0.8173 -0.0000
vn -0.0000 0.8161 -0.5780
vn -0.5702 0.8215 -0.0008
vn -0.0032 0.8229 -0.5682
vn -0.0828 0.9287 -0.3613
vn -0.8000 0.6000 -0.0000
vn -0.8757 -0.0207 0.4823
vn -0.0838 0.3600 -0.9292
vn 0.9931 0.0730 -0.0914
vn 0.9976 0.0673 0.0136
vn -0.9986 -0.0157 -0.0513
vn -0.0000 0.6764 0.7365
vn 0.3960 0.7386 0.5455
vn -0.1833 0.7515 0.6337
vn 0.1238 0.9160 0.3817
vn 0.9987 0.0132 0.0487
vn 0.5787 0.8155 0.0109
vn 0.6348 0.7725 0.0130
vn -0.4655 -0.8851 -0.0014
vn -0.7113 -0.7028 -0.0025
vn -0.0000 0.0404 0.9992
vn -1.0000 0.0045 -0.0046
vn -0.0196 0.8080 -0.5888
vn 1.0000 -0.0050 0.0054
vn 0.1782 0.1622 0.9705
vn -0.0000 0.8161 0.5780
vn -0.5702 0.8215 0.0008
vn -0.0009 0.8257 0.5641
vn -0.0828 0.9287 0.3613
vn -0.6247 0.4685 -0.6247
vn -0.0713 -0.6226 -0.7793
vn -0.0406 0.4554 0.8894
vn 0.9931 0.0730 0.0914
vn 0.9976 0.0673 -0.0136
vn -0.0000 0.6764 -0.7365
vn 0.3960 0.7386 -0.5455
vn -0.1344 0.7618 -0.6337
vn 0.1097 0.9580 -0.2648
vn 0.9987 0.0132 -0.0487
vn 0.6922 0.0285 0.7211
vn 0.5795 0.8149 -0.0102
vn 0.6360 0.7716 -0.0115
vn -0.0005 -1.0000 -0.0010
vn -0.7113 -0.7028 0.0025
vt 0.625000 0.250000
vt 0.375000 0.250000
vt 0.375000 0.122461
vt 0.875000 0.623094
vt 0.875000 0.581918
vt 0.875000 0.622942
vt 0.375000 0.500000
vt 0.125000 0.500000
vt 0.837036 0.500000
vt 0.663065 0.500000
vt 0.836935 0.500000
vt 0.625000 0.500000
vt 0.438350 0.624045
vt 0.438244 0.623838
vt 0.455879 0.621263
vt 0.375000 0.250000
vt 0.875000 0.547907
vt 0.875000 0.625000
vt 0.875000 0.625435
vt 0.875000 0.548273
vt 0.875000 0.500000
vt 0.875000 0.581587
vt 0.875000 0.622505
vt 0.875000 0.622921
vt 0.625000 0.500000
vt 0.732791 0.607791
vt 0.625000 0.602515
vt 0.451337 0.602968
vt 0.594122 0.519076
vt 0.560902 0.586970
vt 0.408494 0.519076
vt 0.662966 0.500000
vt 0.504247 0.500000
vt 0.875000 0.626879
vt 0.875000 0.608225
vt 0.875000 0.556817
vt 0.574906 0.602378
vt 0.573091 0.602682
vt 0.875000 0.627092
vt 0.875000 0.626654
vt 0.125000 0.627539
vt 0.375000 0.625000
vt 0.875000 0.607791
vt 0.125000 0.621593
vt 0.625000 0.125000
vt 0.125000 0.624672
s 0
usemtl Material
f 14/1/1 5/2/1 13/1/1
f 34/1/2 8/2/2 18/2/2
f 46/3/3 13/1/3 5/2/3
f 52/4/4 12/5/4 54/6/4
f 32/1/5 7/7/5 8/2/5
f 19/7/6 37/7/6 21/8/6
f 17/9/7 9/10/7 10/11/7
f 35/12/8 7/7/8 33/12/8
f 56/13/9 31/14/9 58/15/9
f 3/1/10 11/16/10 14/1/10
f 15/17/11 47/18/11 49/19/11
f 16/20/12 13/21/12 15/17/12
f 6/22/13 49/19/13 51/23/13
f 6/22/14 16/20/14 15/17/14
f 12/5/15 53/24/15 54/6/15
f 26/25/16 39/12/16 34/21/16
f 55/26/17 43/27/17 29/12/17
f 23/8/6 22/7/6 24/7/6
f 4/2/18 25/1/18 23/2/18
f 30/7/19 23/8/19 24/7/19
f 3/21/20 26/25/20 25/21/20
f 30/7/21 26/25/21 29/12/21
f 24/7/22 22/7/22 38/25/22
f 25/1/18 18/2/18 21/2/18
f 27/28/23 1/29/23 28/30/23
f 2/31/24 29/12/24 1/29/24
f 2/31/25 31/14/25 30/7/25
f 9/10/26 32/21/26 10/11/26
f 10/11/27 34/21/27 17/9/27
f 9/10/28 35/12/28 33/12/28
f 20/32/29 34/21/29 35/12/29
f 38/25/30 37/7/30 40/33/30
f 40/33/31 37/7/31 36/7/31
f 19/7/32 39/12/32 36/7/32
f 39/12/33 38/25/33 40/33/33
f 39/12/34 40/33/34 36/7/34
f 62/34/35 61/35/35 41/36/35
f 14/21/36 41/36/36 3/21/36
f 14/21/37 62/34/37 41/36/37
f 28/30/38 58/15/38 31/14/38
f 1/29/39 57/37/39 59/38/39
f 6/22/40 51/23/40 53/24/40
f 16/20/41 60/39/41 14/21/41
f 12/5/42 50/40/42 16/20/42
f 11/8/43 46/41/43 5/8/43
f 31/14/44 45/42/44 30/7/44
f 3/21/45 55/26/45 29/12/45
f 3/21/46 61/35/46 44/43/46
f 29/12/47 43/27/47 57/37/47
f 4/8/48 45/42/48 42/44/48
f 42/44/49 11/8/49 4/8/49
f 76/1/50 67/2/50 73/16/50
f 70/2/2 96/1/2 80/2/2
f 46/3/3 75/1/3 47/45/3
f 52/4/51 54/6/51 74/5/51
f 69/7/52 94/1/52 70/2/52
f 80/8/53 98/7/53 69/7/53
f 79/9/54 71/10/54 82/32/54
f 97/12/55 69/7/55 81/7/55
f 56/13/56 58/15/56 93/14/56
f 65/1/57 73/16/57 66/2/57
f 47/18/58 77/17/58 49/19/58
f 75/21/59 78/20/59 77/17/59
f 49/19/60 68/22/60 51/23/60
f 68/22/61 78/20/61 74/5/61
f 53/24/62 74/5/62 54/6/62
f 96/21/63 101/12/63 88/25/63
f 55/26/64 91/12/64 43/27/64
f 84/7/6 85/8/6 86/7/6
f 66/2/65 87/1/65 65/1/65
f 92/7/66 85/8/66 66/8/66
f 65/21/67 88/25/67 91/12/67
f 88/25/68 92/7/68 91/12/68
f 100/25/22 84/7/22 86/7/22
f 83/2/69 96/1/69 87/1/69
f 63/29/70 89/28/70 90/30/70
f 91/12/71 64/31/71 63/29/71
f 64/31/72 93/14/72 89/28/72
f 94/21/73 71/10/73 72/11/73
f 96/21/74 72/11/74 79/9/74
f 71/10/75 97/12/75 82/32/75
f 82/32/76 96/21/76 79/9/76
f 100/25/77 102/33/77 99/7/77
f 102/33/31 98/7/31 99/7/31
f 101/12/32 81/7/32 98/7/32
f 101/12/78 102/33/78 100/25/78
f 101/12/79 98/7/79 102/33/79
f 62/34/80 103/36/80 61/35/80
f 76/21/81 65/21/81 103/36/81
f 62/34/82 76/21/82 103/36/82
f 93/14/83 59/38/83 90/30/83
f 59/38/84 91/12/84 63/29/84
f 68/22/85 53/24/85 51/23/85
f 78/20/86 60/39/86 50/40/86
f 74/5/87 50/40/87 52/4/87
f 73/8/88 46/41/88 48/46/88
f 45/42/44 93/14/44 92/7/44
f 55/26/89 65/21/89 91/12/89
f 65/21/90 61/35/90 103/36/90
f 91/12/91 57/37/91 43/27/91
f 66/8/66 45/42/66 92/7/66
f 73/8/92 42/44/92 66/8/92
f 14/1/93 11/16/93 5/2/93
f 34/1/94 32/1/94 8/2/94
f 46/3/3 47/45/3 13/1/3
f 32/1/5 33/12/5 7/7/5
f 21/8/95 18/8/95 8/8/95
f 8/8/96 7/7/96 19/7/96
f 19/7/97 36/7/97 37/7/97
f 37/7/6 22/7/6 21/8/6
f 21/8/6 8/8/6 19/7/6
f 17/9/98 20/32/98 9/10/98
f 35/12/99 19/7/99 7/7/99
f 3/1/100 4/2/100 11/16/100
f 15/17/101 13/21/101 47/18/101
f 16/20/102 14/21/102 13/21/102
f 6/22/103 15/17/103 49/19/103
f 6/22/104 12/5/104 16/20/104
f 12/5/15 6/22/15 53/24/15
f 34/21/105 25/21/105 26/25/105
f 26/25/106 38/25/106 39/12/106
f 39/12/16 35/12/16 34/21/16
f 23/8/6 21/8/6 22/7/6
f 4/2/107 3/1/107 25/1/107
f 30/7/66 4/8/66 23/8/66
f 3/21/108 29/12/108 26/25/108
f 30/7/109 24/7/109 26/25/109
f 38/25/110 26/25/110 24/7/110
f 22/7/22 37/7/22 38/25/22
f 21/2/18 23/2/18 25/1/18
f 25/1/111 34/1/111 18/2/111
f 27/28/23 2/31/23 1/29/23
f 2/31/24 30/7/24 29/12/24
f 2/31/25 27/28/25 31/14/25
f 9/10/112 33/12/112 32/21/112
f 10/11/113 32/21/113 34/21/113
f 9/10/114 20/32/114 35/12/114
f 20/32/115 17/9/115 34/21/115
f 19/7/116 35/12/116 39/12/116
f 14/21/37 60/39/37 62/34/37
f 31/14/38 27/28/38 28/30/38
f 28/30/38 59/38/38 58/15/38
f 59/38/39 28/30/39 1/29/39
f 1/29/39 29/12/39 57/37/39
f 16/20/117 50/40/117 60/39/117
f 12/5/118 52/4/118 50/40/118
f 11/8/119 48/46/119 46/41/119
f 31/14/44 56/13/44 45/42/44
f 3/21/45 44/43/45 55/26/45
f 3/21/46 41/36/46 61/35/46
f 4/8/66 30/7/66 45/42/66
f 42/44/120 48/46/120 11/8/120
f 76/1/121 75/1/121 67/2/121
f 70/2/122 94/1/122 96/1/122
f 46/3/3 67/2/3 75/1/3
f 69/7/52 95/12/52 94/1/52
f 80/8/6 83/8/6 84/7/6
f 84/7/95 99/7/95 98/7/95
f 98/7/97 81/7/97 69/7/97
f 69/7/66 70/8/66 80/8/66
f 80/8/6 84/7/6 98/7/6
f 79/9/123 72/11/123 71/10/123
f 97/12/124 95/12/124 69/7/124
f 65/1/125 76/1/125 73/16/125
f 47/18/101 75/21/101 77/17/101
f 75/21/126 76/21/126 78/20/126
f 49/19/127 77/17/127 68/22/127
f 68/22/128 77/17/128 78/20/128
f 53/24/62 68/22/62 74/5/62
f 88/25/129 87/21/129 96/21/129
f 96/21/63 97/12/63 101/12/63
f 101/12/130 100/25/130 88/25/130
f 84/7/6 83/8/6 85/8/6
f 66/2/18 85/2/18 87/1/18
f 92/7/131 86/7/131 85/8/131
f 65/21/132 87/21/132 88/25/132
f 88/25/133 86/7/133 92/7/133
f 86/7/134 88/25/134 100/25/134
f 100/25/22 99/7/22 84/7/22
f 87/1/18 85/2/18 83/2/18
f 83/2/2 80/2/2 96/1/2
f 63/29/70 64/31/70 89/28/70
f 91/12/71 92/7/71 64/31/71
f 64/31/72 92/7/72 93/14/72
f 94/21/135 95/12/135 71/10/135
f 96/21/136 94/21/136 72/11/136
f 71/10/137 95/12/137 97/12/137
f 82/32/138 97/12/138 96/21/138
f 101/12/139 97/12/139 81/7/139
f 62/34/82 60/39/82 76/21/82
f 90/30/83 89/28/83 93/14/83
f 93/14/140 58/15/140 59/38/140
f 63/29/84 90/30/84 59/38/84
f 59/38/84 57/37/84 91/12/84
f 78/20/141 76/21/141 60/39/141
f 74/5/142 78/20/142 50/40/142
f 73/8/43 67/8/43 46/41/43
f 45/42/44 56/13/44 93/14/44
f 55/26/89 44/43/89 65/21/89
f 65/21/90 44/43/90 61/35/90
f 66/8/143 42/44/143 45/42/143
f 73/8/144 48/46/144 42/44/144
